<?xml version="1.0" encoding="iso-8859-1"?>
<!-- Generator: Adobe Illustrator 19.0.0, SVG Export Plug-In . SVG Version: 6.00 Build 0)  -->
<svg version="1.1" id="Layer_1" xmlns="http://www.w3.org/2000/svg" xmlns:xlink="http://www.w3.org/1999/xlink" x="0px" y="0px"
	 viewBox="0 0 496.158 496.158" style="enable-background:new 0 0 496.158 496.158;" xml:space="preserve">
<path style="fill:#4ABC96;" d="M248.082,0.003C111.07,0.003,0,111.063,0,248.085c0,137.001,111.07,248.07,248.082,248.07
	c137.006,0,248.076-111.069,248.076-248.07C496.158,111.062,385.088,0.003,248.082,0.003z"/>
<path style="fill:#327477;" d="M364.598,87.984H126.209c-3.909,0-7.09,3.18-7.09,7.097v279.228c0,3.925,3.181,7.097,7.09,7.097
	h238.389c3.914,0,7.088-3.172,7.088-7.097V95.081C371.685,91.164,368.512,87.984,364.598,87.984z"/>
<path style="fill:#3B7F89;" d="M364.598,136.983H139.642l-0.004,263.6h224.959c3.914,0,7.088-3.176,7.088-7.093V144.08
	C371.685,140.163,368.512,136.983,364.598,136.983z"/>
<g>
	<path style="fill:#2A646E;" d="M212.451,228.969c-1.225,4.167-2.52,7.318-3.887,9.453c-1.367,2.136-2.988,3.698-4.863,4.688
		s-4.219,1.484-7.031,1.484h-4.414c-2.5,0-4.076-0.117-4.727-0.352c-0.912-0.364-1.523-0.918-1.836-1.66s-0.469-2.467-0.469-5.176
		v-33.75c0-2.656,0.143-4.297,0.43-4.922c0.391-0.885,0.924-1.51,1.602-1.875c0.938-0.547,2.174-0.82,3.711-0.82h2.305v-1.445
		h-28.243v1.445h1.758c1.484,0,2.662,0.254,3.535,0.762c0.872,0.508,1.451,1.101,1.738,1.777c0.286,0.677,0.43,2.37,0.43,5.078
		V238.5c0,2.656-0.144,4.297-0.43,4.922c-0.365,0.886-0.886,1.511-1.563,1.875c-0.938,0.547-2.175,0.82-3.711,0.82h-1.758v1.445
		h47.031l1.992-18.594L212.451,228.969L212.451,228.969z"/>
	<path style="fill:#2A646E;" d="M270.029,244.711c-1.172-1.067-2.67-3.659-4.492-7.773L246.435,193.5h-0.742l-18.945,42.266
		c-1.797,4.037-3.308,6.699-4.531,7.988c-1.225,1.289-2.787,2.077-4.688,2.363v1.445h17.617v-1.445
		c-2.761-0.208-4.492-0.521-5.195-0.938c-1.198-0.703-1.797-1.797-1.797-3.281c0-1.12,0.364-2.539,1.094-4.258l2.227-5.156h18.711
		l2.813,6.602c0.729,1.719,1.119,2.695,1.172,2.93c0.156,0.495,0.234,0.977,0.234,1.445c0,0.781-0.287,1.38-0.859,1.797
		c-0.834,0.573-2.279,0.859-4.336,0.859h-1.055v1.445h25.624v-1.445C272.164,245.988,270.914,245.519,270.029,244.711z
		 M232.842,229.594l8.125-18.242l7.891,18.242H232.842z"/>
	<path style="fill:#2A646E;" d="M331.357,194.594v1.445c2.057,0.052,3.45,0.384,4.18,0.996c0.729,0.612,1.094,1.452,1.094,2.52
		c0,0.729-0.104,1.523-0.313,2.383c-0.209,0.859-0.769,2.461-1.68,4.805l-8.633,22.695l-9.648-25.078
		c-1.172-3.073-1.758-4.909-1.758-5.508c0-0.547,0.156-1.035,0.469-1.465s0.742-0.735,1.289-0.918c0.781-0.26,2.07-0.403,3.867-0.43
		v-1.445H294.56v1.445c1.641,0,2.884,0.222,3.73,0.664c0.846,0.443,1.595,1.179,2.246,2.207c0.65,1.029,1.575,3.08,2.773,6.152
		l2.188,5.625l-8.32,20.078l-10.391-25.703c-1.276-3.203-1.914-5.299-1.914-6.289c0-0.755,0.306-1.387,0.918-1.895
		c0.611-0.508,1.842-0.788,3.691-0.84v-1.445h-22.969v1.445c1.666,0.156,2.852,0.69,3.555,1.602s1.939,3.542,3.711,7.891
		l17.422,43.242h1.445l14.453-34.141l13.125,34.141h1.523l16.602-43.711c1.484-3.724,2.305-5.742,2.461-6.055
		c0.521-0.963,1.119-1.68,1.797-2.148c0.677-0.469,1.51-0.742,2.5-0.82v-1.445L331.357,194.594L331.357,194.594z"/>
</g>
<rect x="136.759" y="133.289" style="fill:#4699A1;" width="4.313" height="267.29"/>
<path style="fill:#2A646E;" d="M126.209,87.984c-3.909,0-7.09,3.18-7.09,7.097V393.49c0,3.917,3.181,7.093,7.09,7.093h11.268V87.984
	H126.209z"/>
<path style="fill:#E9E9EA;" d="M345.6,101.532H143.352c-7.351,0-13.306,5.958-13.306,13.305v8.742
	c0,7.351,5.955,13.313,13.306,13.313h215.552v-22.056C358.904,107.49,352.949,101.532,345.6,101.532z"/>
<g>
	<path style="fill:#2A646E;" d="M318.115,294.488H191.892c-2.941,0-5.328,2.482-5.328,5.55c0,3.061,2.387,5.547,5.328,5.547h126.224
		c2.941,0,5.326-2.486,5.326-5.547C323.441,296.971,321.057,294.488,318.115,294.488z"/>
	<path style="fill:#2A646E;" d="M318.115,315.077H191.892c-2.941,0-5.328,2.485-5.328,5.546s2.387,5.546,5.328,5.546h126.224
		c2.941,0,5.326-2.486,5.326-5.546C323.441,317.562,321.057,315.077,318.115,315.077z"/>
	<path style="fill:#2A646E;" d="M297.432,347.512h-84.856c-1.981,0-3.587,1.673-3.587,3.731c0,2.054,1.605,3.727,3.587,3.727h84.856
		c1.979,0,3.584-1.673,3.584-3.727C301.016,349.185,299.41,347.512,297.432,347.512z"/>
</g>
<g>
</g>
<g>
</g>
<g>
</g>
<g>
</g>
<g>
</g>
<g>
</g>
<g>
</g>
<g>
</g>
<g>
</g>
<g>
</g>
<g>
</g>
<g>
</g>
<g>
</g>
<g>
</g>
<g>
</g>
</svg>
