<?xml version="1.0" encoding="iso-8859-1"?>
<!-- Generator: Adobe Illustrator 19.0.0, SVG Export Plug-In . SVG Version: 6.00 Build 0)  -->
<svg version="1.1" id="Capa_1" xmlns="http://www.w3.org/2000/svg" xmlns:xlink="http://www.w3.org/1999/xlink" x="0px" y="0px"
	 viewBox="0 0 512 512" style="enable-background:new 0 0 512 512;" xml:space="preserve">
<circle style="fill:#54FBFF;" cx="256" cy="256" r="256"/>
<path style="fill:#00B7BE;" d="M512,256c0-17.509-1.763-34.605-5.112-51.126L386.976,84.962c-9.222-9.222-24.174-9.222-33.396,0
	L132.763,305.778l-28.23,102.604l98.012,98.012C219.788,510.057,237.666,512,256,512C397.385,512,512,397.385,512,256z"/>
<path style="fill:#FFAA20;" d="M406.126,181.164l-74.374-74.374l21.828-21.828c9.222-9.222,24.174-9.222,33.396,0l40.978,40.978
	c9.222,9.222,9.222,24.174,0,33.396L406.126,181.164z"/>
<path style="fill:#E67500;" d="M427.951,159.338l-21.828,21.828l-37.187-37.187l38.53-38.53l20.492,20.492
	C437.179,135.162,437.179,150.11,427.951,159.338z"/>
<rect x="308.258" y="139.346" transform="matrix(-0.7071 -0.7071 0.7071 -0.7071 508.4791 514.7511)" style="fill:#FFFFFF;" width="105.179" height="25.441"/>
<rect x="366.718" y="144.37" transform="matrix(-0.7071 0.7071 -0.7071 -0.7071 768.4201 23.0404)" style="fill:#FFEC97;" width="25.44" height="52.589"/>
<polygon style="fill:#FFDBA9;" points="132.764,305.778 104.534,408.382 207.137,380.152 214.63,372.659 140.256,298.285 "/>
<polygon style="fill:#FFC473;" points="214.631,372.658 207.136,380.153 165.169,391.7 104.535,408.381 177.445,335.471 "/>
<rect x="208.741" y="122.348" transform="matrix(-0.7071 -0.7071 0.7071 -0.7071 268.2239 614.2664)" style="fill:#FF127F;" width="105.179" height="258.468"/>
<rect x="150.682" y="243.881" transform="matrix(-0.7071 0.7071 -0.7071 -0.7071 668.8891 263.2886)" style="fill:#C50A5B;" width="258.467" height="52.589"/>
<rect x="236.799" y="122.352" transform="matrix(-0.7071 -0.7071 0.7071 -0.7071 268.2274 614.2749)" style="fill:#FFAA20;" width="49.07" height="258.468"/>
<rect x="140.767" y="247.989" transform="matrix(-0.7071 0.7071 -0.7071 -0.7071 644.9506 253.3713)" style="fill:#E67500;" width="258.467" height="24.54"/>
<polygon style="fill:#6D76E7;" points="165.166,391.7 121.216,347.749 104.534,408.382 "/>
<polygon style="fill:#1C2EDE;" points="165.169,391.7 104.535,408.381 143.192,369.724 "/>
<g>
</g>
<g>
</g>
<g>
</g>
<g>
</g>
<g>
</g>
<g>
</g>
<g>
</g>
<g>
</g>
<g>
</g>
<g>
</g>
<g>
</g>
<g>
</g>
<g>
</g>
<g>
</g>
<g>
</g>
</svg>
